<svg width="10" height="10" viewBox="0 0 10 10" fill="none" xmlns="http://www.w3.org/2000/svg">
<g clip-path="url(#clip0_22_95)">
<path d="M3.75016 7.91668C1.66683 8.54168 1.66683 6.87502 0.833496 6.66668M6.66683 9.16668V7.55418C6.68246 7.3555 6.65562 7.15577 6.58809 6.96826C6.52055 6.78076 6.41388 6.60977 6.27516 6.46668C7.5835 6.32085 8.9585 5.82502 8.9585 3.55002C8.95839 2.96828 8.73462 2.40885 8.3335 1.98751C8.52344 1.47856 8.51001 0.915994 8.296 0.416681C8.296 0.416681 7.80433 0.270848 6.66683 1.03335C5.71183 0.774524 4.70516 0.774524 3.75016 1.03335C2.61266 0.270848 2.121 0.416681 2.121 0.416681C1.90699 0.915994 1.89356 1.47856 2.0835 1.98751C1.67938 2.41197 1.45538 2.97646 1.4585 3.56251C1.4585 5.82085 2.8335 6.31668 4.14183 6.47918C4.00474 6.62084 3.89902 6.78977 3.83154 6.97498C3.76406 7.1602 3.73633 7.35754 3.75016 7.55418V9.16668" stroke="black" stroke-width="0.5" stroke-linecap="round" stroke-linejoin="round"/>
</g>
<defs>
<clipPath id="clip0_22_95">
<rect width="10" height="10" fill="white"/>
</clipPath>
</defs>
</svg>
