<svg width="10" height="10" viewBox="0 0 10 10" fill="none" xmlns="http://www.w3.org/2000/svg">
<g clip-path="url(#clip0_22_91)">
<path d="M7.0835 0.833313H2.91683C1.76624 0.833313 0.833496 1.76605 0.833496 2.91665V7.08331C0.833496 8.23391 1.76624 9.16665 2.91683 9.16665H7.0835C8.23409 9.16665 9.16683 8.23391 9.16683 7.08331V2.91665C9.16683 1.76605 8.23409 0.833313 7.0835 0.833313Z" stroke="black" stroke-width="0.5" stroke-linecap="round" stroke-linejoin="round"/>
<path d="M6.66687 4.7375C6.71829 5.08427 6.65906 5.43843 6.4976 5.74959C6.33614 6.06076 6.08068 6.31309 5.76755 6.4707C5.45441 6.62831 5.09956 6.68317 4.75345 6.62748C4.40734 6.57178 4.0876 6.40837 3.83972 6.16049C3.59184 5.9126 3.42843 5.59287 3.37273 5.24676C3.31704 4.90065 3.3719 4.54579 3.52951 4.23266C3.68711 3.91953 3.93945 3.66406 4.25061 3.5026C4.56178 3.34115 4.91593 3.28192 5.2627 3.33334C5.61642 3.38579 5.94389 3.55061 6.19674 3.80346C6.44959 4.05632 6.61442 4.38379 6.66687 4.7375Z" stroke="black" stroke-width="0.5" stroke-linecap="round" stroke-linejoin="round"/>
<path d="M7.2915 2.70831H7.29567" stroke="black" stroke-width="0.5" stroke-linecap="round" stroke-linejoin="round"/>
</g>
<defs>
<clipPath id="clip0_22_91">
<rect width="10" height="10" fill="white"/>
</clipPath>
</defs>
</svg>
