<svg width="10" height="10" viewBox="0 0 10 10" fill="none" xmlns="http://www.w3.org/2000/svg">
<path d="M6.6665 3.33331C7.32955 3.33331 7.96543 3.59671 8.43427 4.06555C8.90311 4.53439 9.1665 5.17027 9.1665 5.83331V8.74998H7.49984V5.83331C7.49984 5.6123 7.41204 5.40034 7.25576 5.24406C7.09948 5.08778 6.88752 4.99998 6.6665 4.99998C6.44549 4.99998 6.23353 5.08778 6.07725 5.24406C5.92097 5.40034 5.83317 5.6123 5.83317 5.83331V8.74998H4.1665V5.83331C4.1665 5.17027 4.4299 4.53439 4.89874 4.06555C5.36758 3.59671 6.00346 3.33331 6.6665 3.33331Z" stroke="black" stroke-width="0.5" stroke-linecap="round" stroke-linejoin="round"/>
<path d="M2.50016 3.75H0.833496V8.75H2.50016V3.75Z" stroke="black" stroke-width="0.5" stroke-linecap="round" stroke-linejoin="round"/>
<path d="M1.66683 2.49998C2.12707 2.49998 2.50016 2.12688 2.50016 1.66665C2.50016 1.20641 2.12707 0.833313 1.66683 0.833313C1.20659 0.833313 0.833496 1.20641 0.833496 1.66665C0.833496 2.12688 1.20659 2.49998 1.66683 2.49998Z" stroke="black" stroke-width="0.5" stroke-linecap="round" stroke-linejoin="round"/>
</svg>
